<?xml version="1.0" encoding="UTF-8" standalone="no"?>
<svg
   xmlns:dc="http://purl.org/dc/elements/1.1/"
   xmlns:cc="http://creativecommons.org/ns#"
   xmlns:rdf="http://www.w3.org/1999/02/22-rdf-syntax-ns#"
   xmlns:svg="http://www.w3.org/2000/svg"
   xmlns="http://www.w3.org/2000/svg"
   viewBox="0 0 804 938.66669"
   height="938.66669"
   width="804"
   xml:space="preserve"
   id="svg2"
   version="1.1"><metadata
     id="metadata8"><rdf:RDF><cc:Work
         rdf:about=""><dc:format>image/svg+xml</dc:format><dc:type
           rdf:resource="http://purl.org/dc/dcmitype/StillImage" /></cc:Work></rdf:RDF></metadata><defs
     id="defs6"><clipPath
       id="clipPath18"
       clipPathUnits="userSpaceOnUse"><path
         id="path16"
         d="M 0,704 H 603 V 0 H 0 Z" /></clipPath></defs><g
     transform="matrix(1.3333333,0,0,-1.3333333,0,938.66667)"
     id="g10"><g
       id="g12"><g
         clip-path="url(#clipPath18)"
         id="g14"><g
           transform="translate(497.0462,584.3488)"
           id="g20"><path
             id="path22"
             style="fill:#ffffff;fill-opacity:1;fill-rule:nonzero;stroke:none"
             d="m 0,0 c 0.924,-58.513 0.87,-117.026 0,-175.539 -0.846,-56.367 -3.653,-100.362 -28.905,-134.75 -30.418,-41.432 -81.1,-71.338 -146.288,-100.72 -65.2,29.382 -115.876,59.282 -146.294,100.72 -25.258,34.4 -28.071,78.389 -28.905,134.75 -0.87,58.513 -0.924,117.026 0,175.539 z" /></g><g
           transform="translate(497.0462,584.3488)"
           id="g24"><path
             id="path26"
             style="fill:none;stroke:#000000;stroke-width:3;stroke-linecap:butt;stroke-linejoin:miter;stroke-miterlimit:4;stroke-dasharray:none;stroke-opacity:1"
             d="m 0,0 c 0.924,-58.513 0.87,-117.026 0,-175.539 -0.846,-56.367 -3.653,-100.362 -28.905,-134.75 -30.418,-41.432 -81.1,-71.338 -146.288,-100.72 -65.2,29.382 -115.876,59.282 -146.294,100.72 -25.258,34.4 -28.071,78.389 -28.905,134.75 -0.87,58.513 -0.924,117.026 0,175.539 z" /></g><g
           transform="translate(552.982,127.2393)"
           id="g28"><path
             id="path30"
             style="fill:#c67171;fill-opacity:1;fill-rule:nonzero;stroke:none"
             d="m 0,0 c 0,0 2.226,6.131 1.263,10.905 -0.628,3.109 -2.177,6.249 -4.544,8.36 -2.291,2.045 -5.479,3.686 -8.541,3.453 -10.468,-0.795 -10.533,-7.86 -9.996,-11.953 l 0.545,-26.393 6.361,-1.454 z" /></g><g
           transform="translate(552.982,127.2393)"
           id="g32"><path
             id="path34"
             style="fill:none;stroke:#a02c2c;stroke-width:1.43299997;stroke-linecap:butt;stroke-linejoin:miter;stroke-miterlimit:4;stroke-dasharray:none;stroke-opacity:1"
             d="m 0,0 c 0,0 2.226,6.131 1.263,10.905 -0.628,3.109 -2.177,6.249 -4.544,8.36 -2.291,2.045 -5.479,3.686 -8.541,3.453 -10.468,-0.795 -10.533,-7.86 -9.996,-11.953 l 0.545,-26.393 6.361,-1.454 z" /></g><g
           transform="translate(544.7943,135.6005)"
           id="g36"><path
             id="path38"
             style="fill:#ffd8d8;fill-opacity:1;fill-rule:nonzero;stroke:none"
             d="M 0,0 C 0,0 0.951,3.073 0.545,4.543 0.097,6.167 -0.999,7.871 -2.544,8.542 -4.33,9.317 -6.637,8.904 -8.36,7.996 -10.034,7.115 -11.123,5.314 -11.995,3.635 -12.746,2.187 -13.267,-1.09 -13.267,-1.09 l 4.725,-2.363 3.635,-0.909 z" /></g><g
           transform="translate(544.7943,135.6005)"
           id="g40"><path
             id="path42"
             style="fill:none;stroke:#a02c2c;stroke-width:1.43299997;stroke-linecap:butt;stroke-linejoin:miter;stroke-miterlimit:4;stroke-dasharray:none;stroke-opacity:1"
             d="M 0,0 C 0,0 0.951,3.073 0.545,4.543 0.097,6.167 -0.999,7.871 -2.544,8.542 -4.33,9.317 -6.637,8.904 -8.36,7.996 -10.034,7.115 -11.123,5.314 -11.995,3.635 -12.746,2.187 -13.267,-1.09 -13.267,-1.09 l 4.725,-2.363 3.635,-0.909 z" /></g><g
           transform="translate(542.3588,133.6502)"
           id="g44"><path
             id="path46"
             style="fill:#c67171;fill-opacity:1;fill-rule:nonzero;stroke:none"
             d="M 0,0 C 0,0 0.639,2.223 0.366,3.287 0.065,4.462 -0.671,5.695 -1.709,6.18 -2.908,6.742 -4.458,6.442 -5.615,5.786 -6.74,5.148 -5.573,3.276 -3.312,2.82 -2.172,2.59 -8.911,-0.789 -8.911,-0.789 l 3.174,-1.709 2.441,-0.658 z" /></g><g
           transform="translate(542.3588,133.6502)"
           id="g48"><path
             id="path50"
             style="fill:none;stroke:#a02c2c;stroke-width:1.43299997;stroke-linecap:butt;stroke-linejoin:miter;stroke-miterlimit:4;stroke-dasharray:none;stroke-opacity:1"
             d="M 0,0 C 0,0 0.639,2.223 0.366,3.287 0.065,4.462 -0.671,5.695 -1.709,6.18 -2.908,6.742 -4.458,6.442 -5.615,5.786 -6.74,5.148 -5.573,3.276 -3.312,2.82 -2.172,2.59 -8.911,-0.789 -8.911,-0.789 l 3.174,-1.709 2.441,-0.658 z" /></g><g
           transform="translate(530.571,110.4825)"
           id="g52"><path
             id="path54"
             style="fill:#ffd8d8;fill-opacity:1;fill-rule:nonzero;stroke:none"
             d="m 0,0 0.529,30.168 c 1.08,-2.975 2.911,-6.19 7.554,-6.233 2.874,-0.026 5.182,1.607 6.737,4.116 0,0 -0.368,-6.457 -1.226,-10.32 C 12.212,11.51 6.88,0 6.88,0 Z" /></g><g
           transform="translate(530.571,110.4825)"
           id="g56"><path
             id="path58"
             style="fill:none;stroke:#a02c2c;stroke-width:1.43299997;stroke-linecap:butt;stroke-linejoin:miter;stroke-miterlimit:4;stroke-dasharray:none;stroke-opacity:1"
             d="m 0,0 0.529,30.168 c 1.08,-2.975 2.911,-6.19 7.554,-6.233 2.874,-0.026 5.182,1.607 6.737,4.116 0,0 -0.368,-6.457 -1.226,-10.32 C 12.212,11.51 6.88,0 6.88,0 Z" /></g><g
           transform="translate(521.9598,125.0557)"
           id="g60"><path
             id="path62"
             style="fill:#ffd8d8;fill-opacity:1;fill-rule:nonzero;stroke:none"
             d="m 0,0 c -7.694,11.923 -21.102,14.18 -29.883,10.417 l -3.788,-29.462 c 10.577,2.39 18.358,-0.183 23.254,-7.156 z" /></g><g
           transform="translate(521.9598,125.0557)"
           id="g64"><path
             id="path66"
             style="fill:none;stroke:#a02c2c;stroke-width:1.43299997;stroke-linecap:butt;stroke-linejoin:miter;stroke-miterlimit:4;stroke-dasharray:none;stroke-opacity:1"
             d="m 0,0 c -7.694,11.923 -21.102,14.18 -29.883,10.417 l -3.788,-29.462 c 10.577,2.39 18.358,-0.183 23.254,-7.156 z" /></g><g
           transform="translate(492.0235,123.2423)"
           id="g68"><path
             id="path70"
             style="fill:#c67171;fill-opacity:1;fill-rule:nonzero;stroke:none"
             d="M 0,0 5.423,2.841 6.161,6.065 C 7.237,10.77 -1.142,6.016 1.63,12.859 -2.778,12.208 -4.98,4.673 -5.94,0.258 Z" /></g><g
           transform="translate(492.0235,123.2423)"
           id="g72"><path
             id="path74"
             style="fill:none;stroke:#a02c2c;stroke-width:1.43299997;stroke-linecap:butt;stroke-linejoin:miter;stroke-miterlimit:4;stroke-dasharray:none;stroke-opacity:1"
             d="M 0,0 5.423,2.841 6.161,6.065 C 7.237,10.77 -1.142,6.016 1.63,12.859 -2.778,12.208 -4.98,4.673 -5.94,0.258 Z" /></g><g
           transform="translate(515.7571,114.0149)"
           id="g76"><path
             id="path78"
             style="fill:#c67171;fill-opacity:1;fill-rule:nonzero;stroke:none"
             d="m 0,0 -3.043,5.313 0.628,2.549 C -1.262,12.549 4.2,4.457 5.545,11.716 10.781,7.124 1.963,1.283 0.446,-2.978 Z" /></g><g
           transform="translate(515.7571,114.0149)"
           id="g80"><path
             id="path82"
             style="fill:none;stroke:#a02c2c;stroke-width:1.43299997;stroke-linecap:butt;stroke-linejoin:miter;stroke-miterlimit:4;stroke-dasharray:none;stroke-opacity:1"
             d="m 0,0 -3.043,5.313 0.628,2.549 C -1.262,12.549 4.2,4.457 5.545,11.716 10.781,7.124 1.963,1.283 0.446,-2.978 Z" /></g><g
           transform="translate(513.2885,121.9912)"
           id="g84"><path
             id="path86"
             style="fill:#ffd8d8;fill-opacity:1;fill-rule:nonzero;stroke:none"
             d="m 0,0 c -0.287,-2.326 2.212,-4.13 4.37,-4.937 3.043,-1.139 9.342,-1.21 13.865,-0.789 12.097,1.128 18.244,6.219 22.539,14.677 0,0 -1.103,-7.519 -3.921,-12.607 -3.572,-6.45 -7.254,-12.102 -8.444,-19.379 -0.424,-2.594 0.16,-7.786 0.16,-7.786 -2.117,-3.681 -9.617,-7.066 -16.859,-6.648 -5.529,0.32 -10.523,2.858 -15.127,9.174 0,0 2.448,7.938 2.579,12.258 0.101,3.343 -1.633,6.929 -1.316,10.258 C -1.926,-3.393 0,0 0,0 Z" /></g><g
           transform="translate(513.2885,121.9912)"
           id="g88"><path
             id="path90"
             style="fill:none;stroke:#a02c2c;stroke-width:1.43299997;stroke-linecap:butt;stroke-linejoin:miter;stroke-miterlimit:4;stroke-dasharray:none;stroke-opacity:1"
             d="m 0,0 c -0.287,-2.326 2.212,-4.13 4.37,-4.937 3.043,-1.139 9.342,-1.21 13.865,-0.789 12.097,1.128 18.244,6.219 22.539,14.677 0,0 -1.103,-7.519 -3.921,-12.607 -3.572,-6.45 -7.254,-12.102 -8.444,-19.379 -0.424,-2.594 0.16,-7.786 0.16,-7.786 -2.117,-3.681 -9.617,-7.066 -16.859,-6.648 -5.529,0.32 -10.523,2.858 -15.127,9.174 0,0 2.448,7.938 2.579,12.258 0.101,3.343 -1.633,6.929 -1.316,10.258 C -1.926,-3.393 0,0 0,0 Z" /></g><g
           transform="translate(546.2937,117.0852)"
           id="g92"><path
             id="path94"
             style="fill:#fff0f0;fill-opacity:1;fill-rule:nonzero;stroke:none"
             d="m 0,0 c -7.822,-3.827 -17.192,-9.112 -30.024,-4.016 0,0 1.267,-5.921 1.338,-9.371 0.071,-3.456 -1.53,-10.709 -1.53,-10.709 7.215,-6.608 9.906,-6.554 19.889,-1.912 0,0 -0.081,7.452 1.148,10.9 C -7.334,-9.927 0,0 0,0" /></g><g
           transform="translate(90.7182,127.2393)"
           id="g96"><path
             id="path98"
             style="fill:#c67171;fill-opacity:1;fill-rule:nonzero;stroke:none"
             d="m 0,0 c 0,0 -2.226,6.131 -1.263,10.905 0.628,3.109 2.177,6.249 4.544,8.36 2.291,2.045 5.479,3.686 8.541,3.453 10.468,-0.795 10.533,-7.86 9.996,-11.953 l -0.545,-26.393 -6.361,-1.454 z" /></g><g
           transform="translate(90.7182,127.2393)"
           id="g100"><path
             id="path102"
             style="fill:none;stroke:#a02c2c;stroke-width:1.43299997;stroke-linecap:butt;stroke-linejoin:miter;stroke-miterlimit:4;stroke-dasharray:none;stroke-opacity:1"
             d="m 0,0 c 0,0 -2.226,6.131 -1.263,10.905 0.628,3.109 2.177,6.249 4.544,8.36 2.291,2.045 5.479,3.686 8.541,3.453 10.468,-0.795 10.533,-7.86 9.996,-11.953 l -0.545,-26.393 -6.361,-1.454 z" /></g><g
           transform="translate(98.9058,135.6005)"
           id="g104"><path
             id="path106"
             style="fill:#ffd8d8;fill-opacity:1;fill-rule:nonzero;stroke:none"
             d="M 0,0 C 0,0 -0.951,3.073 -0.545,4.543 -0.097,6.167 0.999,7.871 2.544,8.542 4.33,9.317 6.637,8.904 8.36,7.996 10.034,7.115 11.123,5.314 11.995,3.635 12.746,2.187 13.267,-1.09 13.267,-1.09 L 8.542,-3.453 4.907,-4.362 Z" /></g><g
           transform="translate(98.9058,135.6005)"
           id="g108"><path
             id="path110"
             style="fill:none;stroke:#a02c2c;stroke-width:1.43299997;stroke-linecap:butt;stroke-linejoin:miter;stroke-miterlimit:4;stroke-dasharray:none;stroke-opacity:1"
             d="M 0,0 C 0,0 -0.951,3.073 -0.545,4.543 -0.097,6.167 0.999,7.871 2.544,8.542 4.33,9.317 6.637,8.904 8.36,7.996 10.034,7.115 11.123,5.314 11.995,3.635 12.746,2.187 13.267,-1.09 13.267,-1.09 L 8.542,-3.453 4.907,-4.362 Z" /></g><g
           transform="translate(101.3414,133.6502)"
           id="g112"><path
             id="path114"
             style="fill:#c67171;fill-opacity:1;fill-rule:nonzero;stroke:none"
             d="M 0,0 C 0,0 -0.639,2.223 -0.366,3.287 -0.065,4.462 0.671,5.695 1.709,6.18 2.908,6.742 4.458,6.442 5.615,5.786 6.74,5.148 5.573,3.276 3.312,2.82 2.172,2.59 8.911,-0.789 8.911,-0.789 L 5.737,-2.498 3.296,-3.156 Z" /></g><g
           transform="translate(101.3414,133.6502)"
           id="g116"><path
             id="path118"
             style="fill:none;stroke:#a02c2c;stroke-width:1.43299997;stroke-linecap:butt;stroke-linejoin:miter;stroke-miterlimit:4;stroke-dasharray:none;stroke-opacity:1"
             d="M 0,0 C 0,0 -0.639,2.223 -0.366,3.287 -0.065,4.462 0.671,5.695 1.709,6.18 2.908,6.742 4.458,6.442 5.615,5.786 6.74,5.148 5.573,3.276 3.312,2.82 2.172,2.59 8.911,-0.789 8.911,-0.789 L 5.737,-2.498 3.296,-3.156 Z" /></g><g
           transform="translate(113.1292,110.4825)"
           id="g120"><path
             id="path122"
             style="fill:#ffd8d8;fill-opacity:1;fill-rule:nonzero;stroke:none"
             d="m 0,0 -0.529,30.168 c -1.08,-2.975 -2.912,-6.19 -7.554,-6.233 -2.874,-0.026 -5.182,1.607 -6.737,4.116 0,0 0.368,-6.457 1.226,-10.32 C -12.212,11.51 -6.881,0 -6.881,0 Z" /></g><g
           transform="translate(113.1292,110.4825)"
           id="g124"><path
             id="path126"
             style="fill:none;stroke:#a02c2c;stroke-width:1.43299997;stroke-linecap:butt;stroke-linejoin:miter;stroke-miterlimit:4;stroke-dasharray:none;stroke-opacity:1"
             d="m 0,0 -0.529,30.168 c -1.08,-2.975 -2.912,-6.19 -7.554,-6.233 -2.874,-0.026 -5.182,1.607 -6.737,4.116 0,0 0.368,-6.457 1.226,-10.32 C -12.212,11.51 -6.881,0 -6.881,0 Z" /></g><g
           transform="translate(121.7404,125.0557)"
           id="g128"><path
             id="path130"
             style="fill:#ffd8d8;fill-opacity:1;fill-rule:nonzero;stroke:none"
             d="m 0,0 c 7.694,11.923 21.102,14.18 29.883,10.417 l 3.788,-29.462 c -10.577,2.39 -18.358,-0.183 -23.254,-7.156 z" /></g><g
           transform="translate(121.7404,125.0557)"
           id="g132"><path
             id="path134"
             style="fill:none;stroke:#a02c2c;stroke-width:1.43299997;stroke-linecap:butt;stroke-linejoin:miter;stroke-miterlimit:4;stroke-dasharray:none;stroke-opacity:1"
             d="m 0,0 c 7.694,11.923 21.102,14.18 29.883,10.417 l 3.788,-29.462 c -10.577,2.39 -18.358,-0.183 -23.254,-7.156 z" /></g><g
           transform="translate(151.6767,123.2423)"
           id="g136"><path
             id="path138"
             style="fill:#c67171;fill-opacity:1;fill-rule:nonzero;stroke:none"
             d="M 0,0 -5.423,2.841 -6.161,6.065 C -7.238,10.77 1.142,6.016 -1.63,12.859 2.778,12.208 4.98,4.673 5.94,0.258 Z" /></g><g
           transform="translate(151.6767,123.2423)"
           id="g140"><path
             id="path142"
             style="fill:none;stroke:#a02c2c;stroke-width:1.43299997;stroke-linecap:butt;stroke-linejoin:miter;stroke-miterlimit:4;stroke-dasharray:none;stroke-opacity:1"
             d="M 0,0 -5.423,2.841 -6.161,6.065 C -7.238,10.77 1.142,6.016 -1.63,12.859 2.778,12.208 4.98,4.673 5.94,0.258 Z" /></g><g
           transform="translate(127.943,114.0149)"
           id="g144"><path
             id="path146"
             style="fill:#c67171;fill-opacity:1;fill-rule:nonzero;stroke:none"
             d="M 0,0 3.043,5.313 2.415,7.862 C 1.262,12.549 -4.2,4.457 -5.545,11.716 -10.781,7.124 -1.963,1.283 -0.446,-2.978 Z" /></g><g
           transform="translate(127.943,114.0149)"
           id="g148"><path
             id="path150"
             style="fill:none;stroke:#a02c2c;stroke-width:1.43299997;stroke-linecap:butt;stroke-linejoin:miter;stroke-miterlimit:4;stroke-dasharray:none;stroke-opacity:1"
             d="M 0,0 3.043,5.313 2.415,7.862 C 1.262,12.549 -4.2,4.457 -5.545,11.716 -10.781,7.124 -1.963,1.283 -0.446,-2.978 Z" /></g><g
           transform="translate(130.4116,121.9912)"
           id="g152"><path
             id="path154"
             style="fill:#ffd8d8;fill-opacity:1;fill-rule:nonzero;stroke:none"
             d="m 0,0 c 0.287,-2.326 -2.212,-4.13 -4.369,-4.937 -3.044,-1.139 -9.343,-1.21 -13.866,-0.789 -12.097,1.128 -18.244,6.219 -22.539,14.677 0,0 1.103,-7.519 3.921,-12.607 3.572,-6.45 7.254,-12.102 8.444,-19.379 0.424,-2.594 -0.16,-7.786 -0.16,-7.786 2.117,-3.681 9.617,-7.066 16.859,-6.648 5.529,0.32 10.523,2.858 15.127,9.174 0,0 -2.448,7.938 -2.579,12.258 -0.102,3.343 1.633,6.929 1.316,10.258 C 1.926,-3.393 0,0 0,0 Z" /></g><g
           transform="translate(130.4116,121.9912)"
           id="g156"><path
             id="path158"
             style="fill:none;stroke:#a02c2c;stroke-width:1.43299997;stroke-linecap:butt;stroke-linejoin:miter;stroke-miterlimit:4;stroke-dasharray:none;stroke-opacity:1"
             d="m 0,0 c 0.287,-2.326 -2.212,-4.13 -4.369,-4.937 -3.044,-1.139 -9.343,-1.21 -13.866,-0.789 -12.097,1.128 -18.244,6.219 -22.539,14.677 0,0 1.103,-7.519 3.921,-12.607 3.572,-6.45 7.254,-12.102 8.444,-19.379 0.424,-2.594 -0.16,-7.786 -0.16,-7.786 2.117,-3.681 9.617,-7.066 16.859,-6.648 5.529,0.32 10.523,2.858 15.127,9.174 0,0 -2.448,7.938 -2.579,12.258 -0.102,3.343 1.633,6.929 1.316,10.258 C 1.926,-3.393 0,0 0,0 Z" /></g><g
           transform="translate(97.4064,117.0852)"
           id="g160"><path
             id="path162"
             style="fill:#fff0f0;fill-opacity:1;fill-rule:nonzero;stroke:none"
             d="m 0,0 c 7.822,-3.827 17.192,-9.112 30.024,-4.016 0,0 -1.267,-5.921 -1.338,-9.371 -0.072,-3.456 1.53,-10.709 1.53,-10.709 -7.215,-6.608 -9.906,-6.554 -19.889,-1.912 0,0 0.081,7.452 -1.148,10.9 C 7.334,-9.927 0,0 0,0" /></g><g
           transform="translate(468.0687,99.7584)"
           id="g164"><path
             id="path166"
             style="fill:#ffd8d8;fill-opacity:1;fill-rule:nonzero;stroke:none"
             d="m 0,0 c 7.037,-4.553 12.624,-7.749 16.679,-2.678 3.209,4.43 2.253,9.098 6.554,12.648 8.399,6.931 8.196,17.905 7.151,19.965 -1.665,-4.896 -6.216,-4.554 -9.381,-2.372 -7.298,5.031 -15.416,10.048 -26.276,14.748 -34.904,15.106 -80.18,25.27 -140.946,25.27 -60.765,0 -106.041,-10.164 -140.945,-25.27 -10.86,-4.7 -18.97,-9.729 -26.276,-14.748 -3.176,-2.182 -8.886,-2.524 -9.382,2.372 -1.044,-2.06 -1.247,-13.034 7.152,-19.965 4.301,-3.55 3.345,-8.218 6.553,-12.648 4.056,-5.071 9.643,-1.875 16.68,2.678 32.359,18.045 75.721,32.404 146.218,32.404 C -75.721,32.404 -32.359,18.045 0,0 Z" /></g><g
           transform="translate(468.0687,99.7584)"
           id="g168"><path
             id="path170"
             style="fill:none;stroke:#a02c2c;stroke-width:1.37699997;stroke-linecap:butt;stroke-linejoin:miter;stroke-miterlimit:4;stroke-dasharray:none;stroke-opacity:1"
             d="m 0,0 c 7.037,-4.553 12.624,-7.749 16.679,-2.678 3.209,4.43 2.253,9.098 6.554,12.648 8.399,6.931 8.196,17.905 7.151,19.965 -1.665,-4.896 -6.216,-4.554 -9.381,-2.372 -7.298,5.031 -15.416,10.048 -26.276,14.748 -34.904,15.106 -80.18,25.27 -140.946,25.27 -60.765,0 -106.041,-10.164 -140.945,-25.27 -10.86,-4.7 -18.97,-9.729 -26.276,-14.748 -3.176,-2.182 -8.886,-2.524 -9.382,2.372 -1.044,-2.06 -1.247,-13.034 7.152,-19.965 4.301,-3.55 3.345,-8.218 6.553,-12.648 4.056,-5.071 9.643,-1.875 16.68,2.678 32.359,18.045 75.721,32.404 146.218,32.404 C -75.721,32.404 -32.359,18.045 0,0 Z" /></g><g
           transform="translate(321.8566,162.2278)"
           id="g172"><path
             id="path174"
             style="fill:#fff0f0;fill-opacity:1;fill-rule:nonzero;stroke:none"
             d="m 0,0 c -60.098,0 -104.511,-10.021 -138.612,-24.78 -10.445,-4.52 -14.829,-7.094 -21.983,-12.008 -1.963,-1.349 -4.188,-2.247 -6.679,-2.478 0.857,-2.542 2.343,-5.148 4.84,-7.209 3.203,-2.643 4.522,-5.967 5.291,-8.353 0.755,-2.34 1.196,-3.869 2.12,-5.181 0.254,-0.273 0.441,-0.411 0.394,-0.398 -0.059,0.016 0.063,-0.061 0.751,0.121 1.375,0.364 4.35,1.993 7.805,4.228 0.104,0.067 0.21,0.131 0.319,0.191 33.12,18.469 74.442,30.914 145.754,30.914 71.312,0 112.616,-12.445 145.736,-30.914 0.108,-0.06 0.215,-0.124 0.319,-0.191 3.454,-2.235 6.429,-3.864 7.804,-4.228 0.688,-0.182 0.81,-0.105 0.751,-0.121 -0.046,-0.014 0.14,0.125 0.394,0.398 0.925,1.312 1.365,2.841 2.12,5.181 0.769,2.386 2.088,5.71 5.291,8.353 2.487,2.052 3.997,4.642 4.859,7.174 -2.585,0.209 -4.819,1.248 -6.679,2.53 -7.132,4.917 -11.55,7.468 -22.001,11.991 C 104.491,-10.021 60.098,0 0,0" /></g></g></g></g></svg>